<svg width="24" height="24" viewBox="0 0 24 24" fill="none" xmlns="http://www.w3.org/2000/svg">
<g clip-path="url(#clip0_1_20)">
<path d="M22.5 21H1.50001C0.671548 21 0 20.3284 0 19.5C0 18.6716 0.671548 18 1.50001 18H22.5C23.3285 18 24.0001 18.6716 24.0001 19.5C24 20.3284 23.3285 21 22.5 21Z" fill="black"/>
<path d="M22.5 13.5H1.50001C0.671548 13.5 0 12.8285 0 12.0001C0 11.1716 0.671548 10.5 1.50001 10.5H22.5C23.3285 10.5 24.0001 11.1716 24.0001 12.0001C24.0001 12.8285 23.3285 13.5 22.5 13.5Z" fill="black"/>
<path d="M22.5 6.00003H1.50001C0.671548 6.00003 0 5.32849 0 4.50002C0 3.67156 0.671548 3.00002 1.50001 3.00002H22.5C23.3285 3.00002 24.0001 3.67156 24.0001 4.50002C24.0001 5.32849 23.3285 6.00003 22.5 6.00003Z" fill="black"/>
</g>
<defs>
<clipPath id="clip0_1_20">
<rect width="24" height="24" fill="white"/>
</clipPath>
</defs>
</svg>
