<svg width="19" height="20" viewBox="0 0 19 20" fill="none" xmlns="http://www.w3.org/2000/svg">
<path opacity="0.3" d="M11.702 14.287C11.2638 13.8485 11.2638 13.1376 11.702 12.6991C12.1402 12.2606 12.8507 12.2606 13.2889 12.6991L17.7772 17.1903C18.2154 17.6287 18.2154 18.3396 17.7772 18.7781C17.339 19.2166 16.6285 19.2166 16.1903 18.7781L11.702 14.287Z" fill="black"/>
<path fill-rule="evenodd" clip-rule="evenodd" d="M0.152588 7.87915C0.152588 12.2198 3.66918 15.7387 8.00713 15.7387C12.3451 15.7387 15.8617 12.2198 15.8617 7.87915C15.8617 3.53845 12.3451 0.0196228 8.00713 0.0196228C3.66918 0.0196228 0.152588 3.53845 0.152588 7.87915ZM13.6175 7.87915C13.6175 10.9796 11.1057 13.4931 8.00714 13.4931C4.90861 13.4931 2.39675 10.9796 2.39675 7.87915C2.39675 4.77865 4.90861 2.2652 8.00714 2.2652C11.1057 2.2652 13.6175 4.77865 13.6175 7.87915Z" fill="black"/>
</svg>
