<svg width="22" height="30" viewBox="0 0 22 30" fill="none" xmlns="http://www.w3.org/2000/svg">
<path fill-rule="evenodd" clip-rule="evenodd" d="M5.5 2.72727H2C0.895431 2.72727 0 3.6227 0 4.72727V28C0 29.1045 0.89543 30 2 30H20C21.1046 30 22 29.1045 22 28V4.72727C22 3.6227 21.1046 2.72727 20 2.72727H16.5V3.40906C16.5 4.53874 15.5766 5.45452 14.4375 5.45452H7.5625C6.42341 5.45452 5.5 4.53874 5.5 3.40906V2.72727Z" fill="white"/>
<path fill-rule="evenodd" clip-rule="evenodd" d="M12.375 1.36364H14.6249C14.9011 1.36364 15.1249 1.58749 15.1249 1.86364V3.59091C15.1249 3.86705 14.9011 4.09091 14.6249 4.09091H7.37494C7.0988 4.09091 6.87494 3.86705 6.87494 3.59091V1.86364C6.87494 1.58749 7.0988 1.36364 7.37494 1.36364H9.62497C9.62497 0.61052 10.2406 0 11 0C11.7594 0 12.375 0.61052 12.375 1.36364Z" fill="#DB5FBE"/>
<rect x="4.12494" y="12.2727" width="6.875" height="2.72727" rx="1.36364" fill="#DB5FBE"/>
<rect x="4.12494" y="17.7272" width="12.375" height="2.72727" rx="1.36364" fill="#DB5FBE"/>
</svg>
