<svg width="19" height="26" viewBox="0 0 19 26" fill="none" xmlns="http://www.w3.org/2000/svg">
<path opacity="0.3" fill-rule="evenodd" clip-rule="evenodd" d="M4.56672 2.28337H2C0.895431 2.28337 0 3.1788 0 4.28337V23.117C0 24.2216 0.895433 25.117 2 25.117H16.2669C17.3715 25.117 18.2669 24.2216 18.2669 23.117V4.28337C18.2669 3.1788 17.3715 2.28337 16.2669 2.28337H13.7002V2.85419C13.7002 3.79999 12.9335 4.56672 11.9877 4.56672H6.27924C5.33344 4.56672 4.56672 3.79999 4.56672 2.85419V2.28337Z" fill="black"/>
<path fill-rule="evenodd" clip-rule="evenodd" d="M10.2751 1.14168L12.0585 1.14169C12.3346 1.14169 12.5585 1.36554 12.5585 1.64169V2.92505C12.5585 3.2012 12.3346 3.42505 12.0585 3.42505H6.20837C5.93223 3.42505 5.70837 3.2012 5.70837 2.92505V1.64169C5.70837 1.36554 5.93223 1.14169 6.20837 1.14169H7.99175C7.99175 1.14169 7.99175 1.14168 7.99175 1.14168C7.99175 0.511149 8.5029 0 9.13343 0C9.76397 0 10.2751 0.511149 10.2751 1.14168Z" fill="black"/>
<rect opacity="0.3" x="3.42499" y="10.2752" width="5.70842" height="2.28337" rx="1.14168" fill="black"/>
<rect opacity="0.3" x="3.42499" y="14.8419" width="10.2752" height="2.28337" rx="1.14168" fill="black"/>
</svg>
