<svg width="27" height="31" viewBox="0 0 27 31" fill="none" xmlns="http://www.w3.org/2000/svg">
<path fill-rule="evenodd" clip-rule="evenodd" d="M6.16868 0.589534C5.82084 0.709797 5.5168 0.917776 5.33527 1.15959C5.05527 1.53258 4.99443 1.84287 4.99063 2.91695L4.98714 3.90395L3.65909 3.89984C2.39629 3.8959 2.31552 3.90242 2.01457 4.03257C1.84056 4.1078 1.5954 4.28123 1.46979 4.41787C1.08765 4.83351 1.04582 5.0338 1.04074 6.47125C1.03651 7.66835 1.04378 7.75125 1.16526 7.89714C1.34362 8.11134 1.66372 8.11247 1.84359 7.89954C1.96579 7.75492 1.97396 7.67114 1.97803 6.51981C1.98437 4.72462 1.93552 4.77227 3.76223 4.77873L4.98403 4.78305L4.98252 5.21194C4.97963 6.02827 5.30618 6.59417 5.94185 6.87439C6.54188 7.13896 7.34761 7.02981 7.81134 6.62108C8.14606 6.32612 8.30768 5.93619 8.34349 5.33705L8.3759 4.79505L10.1172 4.8012L11.8586 4.80736L11.8571 5.23624C11.8551 5.79453 11.9832 6.18836 12.2696 6.50433C13.0546 7.37051 14.5959 7.15999 15.0794 6.1206C15.1351 6.00071 15.1962 5.66041 15.2155 5.36135L15.2505 4.81935L16.9833 4.82548L18.7162 4.83161L18.7474 5.37384C18.7646 5.67303 18.8232 6.01375 18.8781 6.13403C19.3542 7.17682 20.8939 7.39823 21.6851 6.53762C21.9737 6.22368 22.1046 5.83077 22.1065 5.27248L22.108 4.8436L23.3299 4.84792C24.2997 4.85135 24.5893 4.87072 24.7346 4.94179C25.1329 5.13667 25.1093 4.45914 25.0732 14.6577L25.0404 23.9396L25.1846 24.0676C25.3761 24.2375 25.6668 24.2349 25.8416 24.0617L25.9779 23.9265L26.0109 14.6076C26.0475 4.25487 26.0759 5.00104 25.6248 4.50328C25.5002 4.36575 25.2562 4.19059 25.0827 4.11414C24.7829 3.98191 24.7018 3.97477 23.4441 3.9698L22.1209 3.96453L22.1043 2.86558C22.0858 1.64033 22.0295 1.42674 21.6244 1.04412C21.2704 0.709802 20.9643 0.593204 20.4357 0.591335C19.907 0.589466 19.6001 0.703896 19.2438 1.0357C18.8359 1.41544 18.7782 1.62863 18.751 2.85373L18.7266 3.95253L16.9865 3.94638L15.2463 3.94022L15.2297 2.84127C15.2111 1.61602 15.1549 1.40243 14.7498 1.01981C14.3958 0.685495 14.0897 0.568897 13.5611 0.567028C13.0324 0.565158 12.7255 0.679589 12.3692 1.0114C11.9613 1.39114 11.9036 1.60432 11.8764 2.82942L11.852 3.92822L10.1118 3.92207L8.3717 3.91592L8.35508 2.81697C8.33654 1.59171 8.2803 1.37812 7.87517 0.995506C7.44045 0.584946 6.69487 0.407542 6.16868 0.589534ZM6.9938 1.46588C7.07852 1.5065 7.21171 1.62917 7.2897 1.73845C7.42968 1.93476 7.4314 1.9602 7.42509 3.7473C7.41816 5.70611 7.3971 5.84769 7.084 6.03858C6.85483 6.17826 6.41195 6.16632 6.20831 6.01498C5.93329 5.81063 5.90941 5.60056 5.93731 3.63355L5.96326 1.80679L6.12006 1.64981C6.37947 1.39004 6.69619 1.32335 6.9938 1.46588ZM13.8684 1.49019C13.9531 1.53081 14.0863 1.65348 14.1643 1.76276C14.3043 1.95906 14.306 1.98451 14.2997 3.7716C14.2928 5.73042 14.2717 5.872 13.9586 6.06289C13.752 6.18881 13.3008 6.1895 13.1115 6.06417C12.8146 5.86773 12.7929 5.70789 12.7998 3.7663C12.8061 1.9792 12.808 1.95377 12.9494 1.75847C13.1843 1.43403 13.5364 1.33124 13.8684 1.49019ZM20.743 1.51449C20.8277 1.55512 20.9609 1.67778 21.0389 1.78707C21.1789 1.98337 21.1806 2.00881 21.1743 3.79591C21.1674 5.7375 21.1446 5.89718 20.8464 6.09152C20.6561 6.21551 20.205 6.21163 19.9993 6.08425C19.6875 5.89115 19.6675 5.74942 19.6744 3.79061C19.6807 2.00351 19.6826 1.97808 19.824 1.78277C20.0589 1.45833 20.411 1.35555 20.743 1.51449ZM1.30048 9.28193C1.22532 9.31073 1.13361 9.38672 1.09677 9.45076C1.05017 9.53183 1.01925 12.548 0.995107 19.3772C0.955949 30.452 0.91598 29.5247 1.45441 30.0332C1.99389 30.5428 0.924603 30.4974 13.4551 30.5417C25.9855 30.586 24.916 30.6238 25.459 30.1181C25.9361 29.6738 25.958 29.5608 25.9653 27.4948C25.969 26.4452 25.9466 25.6697 25.9108 25.6064C25.7671 25.3527 25.1827 25.3682 25.075 25.6288C25.0525 25.6833 25.0313 26.505 25.028 27.4548C25.0229 28.8839 25.0054 29.2114 24.9264 29.3535C24.7183 29.7279 25.5527 29.7054 13.4582 29.6626C3.74311 29.6283 2.43116 29.6132 2.26957 29.5342C1.87078 29.339 1.89477 30.0673 1.93278 19.3163C1.96543 10.0837 1.96121 9.52573 1.85843 9.41096C1.72802 9.26539 1.48841 9.20998 1.30048 9.28193ZM8.87228 9.36573C8.80257 9.39162 8.17035 10.0606 7.46734 10.8522C6.76438 11.6438 6.17429 12.2774 6.1561 12.2602C6.13792 12.2431 5.98107 12.0244 5.80759 11.7743C5.51783 11.3566 5.47334 11.3181 5.26141 11.3008C4.98163 11.278 4.773 11.4416 4.77214 11.6845C4.77179 11.7845 4.96537 12.1465 5.27684 12.6283C5.82588 13.4776 5.96584 13.593 6.27464 13.4508C6.41593 13.3858 7.3684 12.3542 9.06953 10.4238C9.53745 9.89285 9.59362 9.7378 9.39349 9.52956C9.22505 9.3542 9.05057 9.29937 8.87228 9.36573ZM11.0239 11.0129C9.71042 11.3826 9.51636 12.9946 10.7171 13.5609L11.0392 13.7128L16.2538 13.7312C20.1805 13.7451 21.532 13.7322 21.7258 13.679C22.0644 13.5859 22.5268 13.1554 22.6284 12.8386C22.8085 12.2767 22.6168 11.6316 22.1753 11.3134C21.7291 10.9919 21.7999 10.9959 16.2798 10.9818C13.4753 10.9747 11.1101 10.9887 11.0239 11.0129ZM21.4777 11.9424C21.8073 12.1085 21.873 12.4863 21.6143 12.7272L21.4604 12.8705L16.3071 12.8523L11.1539 12.8341L10.9872 12.647C10.8579 12.5019 10.829 12.4209 10.8583 12.2858C10.903 12.0799 11.0004 11.9593 11.1752 11.8936C11.3864 11.8142 21.3166 11.8613 21.4777 11.9424ZM8.85176 15.1678C8.78205 15.1937 8.14984 15.8626 7.44682 16.6543C6.74387 17.4459 6.15378 18.0795 6.13559 18.0623C6.1174 18.0451 5.96056 17.8265 5.78707 17.5764C5.49731 17.1587 5.45283 17.1201 5.2409 17.1029C4.96111 17.0801 4.75248 17.2437 4.75162 17.4865C4.75127 17.5866 4.94486 17.9486 5.25633 18.4304C5.80573 19.2803 5.94476 19.3947 6.25569 19.2529C6.3919 19.1908 7.5471 17.9357 9.20457 16.0492C9.51675 15.6939 9.55685 15.523 9.37297 15.3316C9.20454 15.1563 9.03005 15.1014 8.85176 15.1678ZM11.16 16.7999C10.6191 16.9154 10.2687 17.1443 10.0676 17.5133C9.69093 18.2047 9.98655 19.067 10.7109 19.3893C10.9914 19.5142 11.0187 19.5149 16.2901 19.5322C21.3172 19.5488 21.6001 19.5442 21.8377 19.4418C22.3606 19.2165 22.685 18.739 22.6844 18.1954C22.6839 17.6648 22.3966 17.2306 21.87 16.9649L21.597 16.827L16.441 16.8001C13.6053 16.7854 11.2288 16.7852 11.16 16.7999ZM21.5987 17.8706C21.795 18.0862 21.7931 18.3437 21.5937 18.5293L21.4399 18.6726L16.281 18.6544C11.2278 18.6365 11.1198 18.6338 10.9993 18.52C10.8361 18.3658 10.7898 18.1684 10.8707 17.971C11.0085 17.6345 10.8829 17.6413 16.3965 17.6749L21.4485 17.7056L21.5987 17.8706ZM8.81335 21.0122C8.76829 21.029 8.16415 21.6775 7.47081 22.4534C6.77748 23.2293 6.19056 23.8851 6.16647 23.9107C6.14244 23.9363 5.98681 23.7463 5.82067 23.4884C5.43549 22.8907 5.21783 22.7789 4.89676 23.014C4.62469 23.2132 4.67294 23.4075 5.19371 24.2097C5.74151 25.0536 5.82677 25.1377 6.10935 25.1133C6.29902 25.097 6.45964 24.9384 7.8437 23.4011C8.68258 22.4692 9.39634 21.6441 9.4298 21.5674C9.57793 21.2282 9.18495 20.8743 8.81335 21.0122ZM10.7015 22.7389C10.1622 22.9833 9.8003 23.6135 9.88561 24.1596C9.97386 24.7243 10.4494 25.1946 11.0533 25.3144C11.2838 25.3601 12.9418 25.3808 16.476 25.3819L21.5667 25.3836L21.8407 25.2478C22.3692 24.9857 22.6596 24.5536 22.6638 24.023C22.6682 23.4794 22.3472 22.9997 21.8259 22.7707C21.5889 22.6665 21.3087 22.6601 16.2641 22.6433C11.125 22.6261 10.9438 22.6292 10.7015 22.7389ZM21.5755 23.6814C21.7735 23.8684 21.7736 24.1259 21.5758 24.3401L21.4244 24.504L16.3885 24.5019C12.0741 24.5001 11.3213 24.4873 11.1333 24.4129C10.7731 24.2703 10.6985 23.8791 10.9812 23.6158C11.1026 23.5028 11.2106 23.5009 16.2638 23.5187L21.4227 23.537L21.5755 23.6814Z" fill="white"/>
</svg>
